<?xml version="1.0" encoding="utf-8"?>
<!-- Generator: Adobe Illustrator 16.0.0, SVG Export Plug-In . SVG Version: 6.00 Build 0)  -->
<!DOCTYPE svg PUBLIC "-//W3C//DTD SVG 1.1//EN" "http://www.w3.org/Graphics/SVG/1.1/DTD/svg11.dtd">
<svg version="1.1" id="Ebene_1" xmlns="http://www.w3.org/2000/svg" xmlns:xlink="http://www.w3.org/1999/xlink" 
	 xml:space="preserve">
<g>
	<g>
		<path d="M288.732,342.271h-3.366v-1.276h-0.042c-0.347,0.582-0.831,1.004-1.455,1.268s-1.315,0.395-2.078,0.395
			c-1.17,0-2.205-0.28-3.102-0.842c-0.897-0.561-1.589-1.317-2.078-2.274c-0.488-0.955-0.732-2.021-0.732-3.199
			c0-1.15,0.242-2.203,0.728-3.158c0.484-0.957,1.17-1.717,2.057-2.281c0.887-0.563,1.908-0.848,3.065-0.848
			c1.393,0,2.549,0.473,3.47,1.414v-4.945h3.533L288.732,342.271L288.732,342.271z M285.387,336.317
			c0-0.407-0.076-0.801-0.229-1.174c-0.152-0.375-0.358-0.69-0.618-0.951c-0.26-0.26-0.571-0.463-0.935-0.612
			c-0.364-0.148-0.765-0.224-1.2-0.224c-0.845,0-1.555,0.279-2.13,0.836c-0.575,0.56-0.862,1.267-0.862,2.125
			c0,0.556,0.123,1.064,0.369,1.533c0.246,0.467,0.594,0.834,1.044,1.103c0.45,0.266,0.963,0.397,1.538,0.397
			c0.568,0,1.084-0.131,1.548-0.395c0.464-0.263,0.826-0.625,1.086-1.086C285.257,337.411,285.387,336.892,285.387,336.317z"/>
		<path d="M293.778,329.21h-3.533v-2.689h3.533V329.21z M293.778,342.271h-3.533v-11.812h3.533V342.271z"/>
		<path d="M307.478,336.505c0,0.34-0.028,0.649-0.083,0.936h-8.853c0.11,0.687,0.424,1.229,0.94,1.631
			c0.516,0.402,1.127,0.603,1.834,0.603c0.471,0,0.871-0.09,1.2-0.271c0.329-0.18,0.642-0.457,0.939-0.832h3.627
			c-0.25,0.591-0.57,1.138-0.962,1.644c-0.391,0.506-0.836,0.938-1.335,1.305c-0.499,0.363-1.041,0.644-1.626,0.84
			c-0.585,0.199-1.2,0.298-1.844,0.298c-1.129,0-2.175-0.281-3.138-0.843c-0.964-0.561-1.726-1.319-2.286-2.278
			c-0.562-0.961-0.842-2.004-0.842-3.134c0-0.823,0.157-1.625,0.473-2.399c0.314-0.775,0.76-1.465,1.335-2.068
			c0.575-0.602,1.235-1.065,1.979-1.393c0.745-0.324,1.546-0.488,2.405-0.488c0.907,0,1.737,0.166,2.488,0.494
			s1.41,0.791,1.974,1.387c0.564,0.596,1.001,1.289,1.31,2.078C307.322,334.802,307.478,335.632,307.478,336.505z M303.956,335.06
			c-0.132-0.615-0.449-1.106-0.951-1.475c-0.502-0.367-1.083-0.551-1.739-0.551c-0.651,0-1.227,0.184-1.726,0.551
			s-0.816,0.858-0.956,1.475H303.956z"/>
		<path d="M320.675,333.138h-1.704v9.133h-3.533v-9.133h-1.735v-2.68h1.735v-3.938h3.533v3.938h1.704V333.138z"/>
		<path d="M325.106,329.21h-3.533v-2.689h3.533V329.21z M325.106,342.271h-3.533v-11.812h3.533V342.271z"/>
		<path d="M338.963,337.782c-0.159,0.692-0.436,1.346-0.826,1.959c-0.393,0.612-0.855,1.131-1.394,1.553
			c-0.537,0.424-1.148,0.756-1.839,0.998c-0.689,0.242-1.4,0.362-2.135,0.362c-0.859,0-1.674-0.161-2.447-0.487
			c-0.772-0.326-1.448-0.777-2.025-1.355c-0.579-0.578-1.03-1.254-1.356-2.024c-0.326-0.773-0.488-1.588-0.488-2.447
			c0-1.144,0.273-2.195,0.821-3.158c0.547-0.963,1.3-1.727,2.26-2.287c0.96-0.56,2.011-0.842,3.153-0.842
			c0.748,0,1.465,0.117,2.151,0.35c0.686,0.23,1.309,0.564,1.87,1.003c0.561,0.436,1.035,0.961,1.423,1.573
			c0.387,0.613,0.657,1.293,0.811,2.041h-3.574c-0.506-1.106-1.385-1.662-2.639-1.662c-0.817,0-1.475,0.293-1.974,0.877
			c-0.499,0.587-0.748,1.296-0.748,2.125c0,0.556,0.115,1.062,0.348,1.519s0.559,0.818,0.982,1.08
			c0.422,0.264,0.914,0.395,1.475,0.395c1.15,0,2.002-0.521,2.556-1.567h3.596V337.782z"/>
		<path d="M351.001,330.458l-4.447,5.194l4.322,6.617h-4l-3.347-5.684h-0.042v5.684h-3.532v-15.75h3.532v8.217h0.042l3.284-4.278
			H351.001L351.001,330.458z"/>
		<path d="M362.695,336.505c0,0.34-0.028,0.649-0.083,0.936h-8.852c0.109,0.687,0.424,1.229,0.939,1.631
			c0.517,0.402,1.127,0.603,1.834,0.603c0.472,0,0.871-0.09,1.2-0.271c0.329-0.18,0.643-0.457,0.94-0.832h3.626
			c-0.25,0.591-0.57,1.138-0.961,1.644c-0.392,0.506-0.836,0.938-1.335,1.305c-0.499,0.363-1.041,0.644-1.626,0.84
			c-0.585,0.199-1.2,0.298-1.845,0.298c-1.129,0-2.175-0.281-3.138-0.843c-0.963-0.561-1.725-1.319-2.286-2.278
			c-0.561-0.961-0.842-2.004-0.842-3.134c0-0.823,0.158-1.625,0.473-2.399c0.315-0.775,0.761-1.465,1.335-2.068
			c0.575-0.602,1.235-1.065,1.979-1.393c0.745-0.324,1.546-0.488,2.405-0.488c0.906,0,1.736,0.166,2.487,0.494
			s1.41,0.791,1.975,1.387c0.563,0.596,1.001,1.289,1.309,2.078S362.695,335.632,362.695,336.505z M359.174,335.06
			c-0.132-0.615-0.449-1.106-0.951-1.475c-0.502-0.367-1.083-0.551-1.74-0.551c-0.651,0-1.226,0.184-1.725,0.551
			s-0.817,0.858-0.956,1.475H359.174z"/>
		<path d="M369.528,333.138h-1.704v9.133h-3.532v-9.133h-1.735v-2.68h1.735v-3.938h3.532v3.938h1.704V333.138z"/>
		<path d="M382.635,336.505c0,0.34-0.028,0.649-0.083,0.936H373.7c0.11,0.687,0.424,1.229,0.94,1.631
			c0.516,0.402,1.127,0.603,1.834,0.603c0.471,0,0.871-0.09,1.2-0.271c0.329-0.18,0.642-0.457,0.939-0.832h3.626
			c-0.25,0.591-0.569,1.138-0.961,1.644c-0.391,0.506-0.836,0.938-1.335,1.305c-0.499,0.363-1.041,0.644-1.626,0.84
			c-0.585,0.199-1.2,0.298-1.844,0.298c-1.129,0-2.175-0.281-3.138-0.843c-0.963-0.561-1.726-1.319-2.286-2.278
			c-0.562-0.961-0.842-2.004-0.842-3.134c0-0.823,0.157-1.625,0.473-2.399c0.314-0.775,0.76-1.465,1.335-2.068
			c0.575-0.602,1.235-1.065,1.979-1.393c0.745-0.324,1.547-0.488,2.405-0.488c0.907,0,1.737,0.166,2.488,0.494
			s1.41,0.791,1.974,1.387c0.564,0.596,1.001,1.289,1.31,2.078C382.479,334.802,382.635,335.632,382.635,336.505z M379.113,335.06
			c-0.132-0.615-0.449-1.106-0.951-1.475c-0.502-0.367-1.083-0.551-1.739-0.551c-0.651,0-1.227,0.184-1.726,0.551
			s-0.816,0.858-0.956,1.475H379.113z"/>
		<path d="M395.192,342.271h-4.322l-2.357-3.656l-2.4,3.656h-4.26l4.488-6.315l-3.979-5.496h4.239l1.912,3.104l1.891-3.104h4.197
			l-3.979,5.496L395.192,342.271z"/>
		<path d="M408.706,336.483c0,0.818-0.135,1.601-0.404,2.349c-0.271,0.748-0.664,1.412-1.181,1.989
			c-0.516,0.578-1.131,1.033-1.844,1.361s-1.484,0.494-2.316,0.494c-1.469,0-2.653-0.488-3.554-1.465v4.996h-3.533v-15.75h3.314
			v1.299h0.021h0.052c0.45-0.562,0.989-0.986,1.616-1.273s1.313-0.432,2.062-0.432c0.895,0,1.697,0.166,2.41,0.5
			c0.713,0.332,1.32,0.797,1.818,1.393c0.499,0.597,0.88,1.287,1.143,2.076C408.574,334.812,408.706,335.632,408.706,336.483z
			 M405.174,336.38c0-0.43-0.073-0.826-0.219-1.189c-0.145-0.362-0.35-0.682-0.612-0.957c-0.264-0.272-0.58-0.487-0.951-0.643
			c-0.371-0.156-0.764-0.234-1.179-0.234c-0.555,0-1.056,0.133-1.501,0.4c-0.446,0.266-0.801,0.631-1.061,1.09
			c-0.26,0.461-0.39,0.973-0.39,1.533c0,0.547,0.128,1.049,0.384,1.506s0.611,0.82,1.065,1.086c0.453,0.268,0.953,0.4,1.501,0.4
			c0.547,0,1.048-0.134,1.501-0.4c0.454-0.266,0.811-0.631,1.069-1.096C405.042,337.411,405.174,336.913,405.174,336.38z"/>
		<path d="M421.844,336.505c0,0.34-0.027,0.649-0.083,0.936h-8.853c0.11,0.687,0.424,1.229,0.94,1.631
			c0.516,0.402,1.127,0.603,1.834,0.603c0.471,0,0.871-0.09,1.2-0.271c0.329-0.18,0.642-0.457,0.939-0.832h3.626
			c-0.25,0.591-0.569,1.138-0.961,1.644c-0.391,0.506-0.836,0.938-1.335,1.305c-0.499,0.363-1.041,0.644-1.626,0.84
			c-0.585,0.199-1.2,0.298-1.844,0.298c-1.129,0-2.175-0.281-3.138-0.843c-0.963-0.561-1.726-1.319-2.286-2.278
			c-0.562-0.961-0.842-2.004-0.842-3.134c0-0.823,0.157-1.625,0.473-2.399c0.314-0.775,0.76-1.465,1.335-2.068
			c0.575-0.602,1.235-1.065,1.979-1.393c0.745-0.324,1.547-0.488,2.405-0.488c0.907,0,1.737,0.166,2.488,0.494
			s1.41,0.791,1.974,1.387c0.564,0.596,1.001,1.289,1.31,2.078C421.69,334.8,421.844,335.632,421.844,336.505z M418.322,335.06
			c-0.132-0.615-0.449-1.106-0.951-1.475c-0.502-0.367-1.083-0.551-1.739-0.551c-0.651,0-1.227,0.184-1.726,0.551
			s-0.816,0.858-0.956,1.475H418.322z"/>
		<path d="M429.466,333.606c-0.603,0.027-1.101,0.097-1.49,0.207c-0.39,0.111-0.705,0.32-0.941,0.629
			c-0.233,0.31-0.352,0.754-0.352,1.334v6.494h-3.533v-11.812h3.314v1.256h0.041c0.299-0.588,0.69-1.012,1.18-1.271
			c0.489-0.259,1.082-0.391,1.781-0.391V333.606z"/>
		<path d="M437.034,333.138h-1.704v9.133h-3.532v-9.133h-1.734v-2.68h1.734v-3.938h3.532v3.938h1.704V333.138z"/>
		<path d="M449.717,336.505c0,0.34-0.028,0.649-0.083,0.936h-8.854c0.11,0.687,0.424,1.229,0.94,1.631
			c0.516,0.402,1.127,0.603,1.834,0.603c0.471,0,0.87-0.09,1.199-0.271c0.329-0.18,0.643-0.457,0.939-0.832h3.626
			c-0.249,0.591-0.568,1.138-0.961,1.644c-0.392,0.506-0.836,0.938-1.335,1.305c-0.499,0.363-1.041,0.644-1.626,0.84
			c-0.585,0.199-1.2,0.298-1.844,0.298c-1.13,0-2.176-0.281-3.14-0.843c-0.963-0.561-1.725-1.319-2.284-2.278
			c-0.562-0.961-0.843-2.004-0.843-3.134c0-0.823,0.157-1.625,0.474-2.399c0.315-0.775,0.76-1.465,1.335-2.068
			c0.575-0.602,1.233-1.065,1.979-1.393c0.744-0.324,1.546-0.488,2.405-0.488c0.907,0,1.736,0.166,2.488,0.494
			s1.409,0.791,1.975,1.387c0.564,0.596,1.001,1.289,1.31,2.078C449.562,334.8,449.717,335.632,449.717,336.505z M446.193,335.06
			c-0.132-0.615-0.448-1.106-0.951-1.475c-0.502-0.367-1.082-0.551-1.739-0.551c-0.65,0-1.227,0.184-1.726,0.551
			c-0.498,0.367-0.816,0.858-0.956,1.475H446.193z"/>
		<path d="M461.982,342.271h-3.533v-6.451c0-0.774-0.126-1.377-0.379-1.803s-0.746-0.639-1.479-0.639
			c-0.763,0-1.288,0.213-1.579,0.639s-0.438,1.037-0.438,1.834v6.42h-3.532v-11.812h3.293v1.256h0.043
			c0.248-0.408,0.528-0.732,0.842-0.971c0.312-0.238,0.668-0.414,1.069-0.525c0.401-0.109,0.839-0.166,1.31-0.166
			c0.513,0,1.053,0.094,1.621,0.281c0.566,0.188,1.031,0.436,1.392,0.748c0.915,0.756,1.372,2.022,1.372,3.803L461.982,342.271
			L461.982,342.271z"/>
	</g>
	<g>
		<path d="M565.359,254.513c-1.104,1.521-3.229,1.856-4.752,0.752c-1.522-1.104-1.854-3.23-0.754-4.752
			c1.106-1.521,3.231-1.857,4.754-0.752C566.128,250.865,566.464,252.993,565.359,254.513"/>
		<path d="M559.975,261.921c-1.104,1.52-3.23,1.855-4.75,0.752c-1.521-1.104-1.857-3.23-0.752-4.752
			c1.104-1.521,3.229-1.856,4.75-0.752C560.744,258.273,561.08,260.401,559.975,261.921"/>
		<path d="M554.594,269.332c-1.105,1.52-3.232,1.854-4.754,0.75c-1.521-1.104-1.857-3.229-0.752-4.75
			c1.104-1.521,3.231-1.857,4.754-0.754C555.361,265.683,555.697,267.811,554.594,269.332"/>
		<path d="M549.212,276.738c-1.105,1.521-3.232,1.858-4.752,0.755c-1.521-1.104-1.857-3.231-0.753-4.755
			c1.104-1.519,3.23-1.854,4.753-0.752C549.977,273.091,550.314,275.218,549.212,276.738"/>
		<path d="M543.828,284.149c-1.104,1.52-3.231,1.856-4.754,0.751c-1.52-1.104-1.854-3.229-0.752-4.752
			c1.105-1.52,3.232-1.854,4.754-0.751C544.596,280.5,544.932,282.628,543.828,284.149"/>
		<path d="M529.283,303.86c-1.104,1.521-3.231,1.855-4.752,0.752c-1.52-1.104-1.856-3.229-0.752-4.752
			c1.104-1.521,3.23-1.857,4.752-0.755C530.05,300.212,530.387,302.339,529.283,303.86"/>
		<path d="M523.9,311.269c-1.104,1.521-3.231,1.855-4.752,0.752c-1.521-1.104-1.856-3.229-0.752-4.752
			c1.104-1.52,3.229-1.856,4.752-0.752C524.669,307.62,525.005,309.747,523.9,311.269"/>
		<path d="M518.518,318.677c-1.105,1.521-3.232,1.857-4.752,0.752c-1.521-1.104-1.857-3.229-0.754-4.752
			c1.104-1.518,3.233-1.857,4.754-0.752C519.285,315.028,519.621,317.157,518.518,318.677"/>
		<path d="M513.135,326.087c-1.105,1.52-3.23,1.854-4.754,0.752c-1.519-1.105-1.855-3.23-0.752-4.752
			c1.104-1.521,3.231-1.857,4.754-0.754C513.902,322.438,514.238,324.567,513.135,326.087"/>
		<path d="M507.751,333.495c-1.103,1.52-3.23,1.854-4.75,0.752c-1.521-1.105-1.857-3.23-0.753-4.752
			c1.104-1.521,3.232-1.857,4.75-0.752C508.52,329.847,508.857,331.974,507.751,333.495"/>
		<path d="M502.369,340.903c-1.104,1.521-3.231,1.857-4.752,0.752c-1.52-1.104-1.856-3.229-0.752-4.752
			c1.103-1.52,3.23-1.854,4.752-0.752C503.137,337.257,503.473,339.384,502.369,340.903"/>
	</g>
	<g>
		<g>
			<rect x="494.596" y="249.068" width="14.197" height="10.777"/>
			<path d="M522.818,264.938h-14.024h-2.996h-9.228h-1.975h-12.74l-9.062,29.599h-0.171l-9.067-29.599h-8.099
				c-8.204,0-10.682,4.283-11.883,6.597h-0.168v-6.597h-13.344v13.794c-3.736-9.134-12.326-15.422-23.039-15.422
				c-14.449,0-24.883,12.229-24.883,25.492c0,0.368,0.012,0.732,0.027,1.096c-3.14-3.878-8.687-5.441-14.025-6.92
				c-3.769-1.104-7.271-2.561-7.271-5.121c0-1.287,1.027-3.17,4.015-3.17c4.194,0,4.367,2.566,4.457,3.588h13.938
				c-1.196-12.481-11.977-14.965-18.217-14.965c-9.34,0-17.512,5.638-18.312,14.266c-3.972-8.504-12.279-14.266-22.529-14.266
				c-6.512,0-12.201,2.485-16.494,6.423v-4.795H301.6c-8.211,0-10.688,4.361-11.884,6.672h-0.176v-6.672h-13.344v47.465h14.201
				v-24.459c0-7.024,4.43-8.489,10.787-8.709c-1.201,3.01-1.853,6.257-1.853,9.567c0,14.104,11.539,25.138,25.148,25.138
				c4.873,0,9.572-1.455,13.508-4.278c3.334-2.271,6.174-5.507,8.367-9.57c2.104,10.981,12.227,13.93,19.051,13.93
				c9.851,0,18.203-5.401,19.228-14.297c4.112,8.482,12.848,14.217,22.653,14.217c4.867,0,9.57-1.455,13.515-4.278
				c3.8-2.586,6.974-6.406,9.259-11.298v14.042h14.197v-24.542c0-6.618,3.93-8.301,9.696-8.656l11.91,33.198h13.592l15.138-41.989
				v41.989h14.196v-43.311l31.212,43.311h17.364L522.818,264.938z M324.309,275.285c7.348,0,10.18,5.307,10.771,8.123h-21.547
				C314.12,280.591,316.954,275.285,324.309,275.285z M365.583,302.651c-0.604,0-4.793,0-5.396-4.358H347.26
				c0.002-0.004,0.004-0.008,0.006-0.013H332.43c-1.84,2.096-4.064,3.684-7.947,3.684c-5.566,0-10.266-3.328-11.129-8.972h35.582
				c0.172-1.115,0.35-1.89,0.35-3.771c0-1.173-0.075-2.323-0.213-3.451c2.082,2.603,5.312,4.448,8.892,5.594
				c9.067,3.503,12.575,3.933,12.575,7.611C370.54,301.282,367.975,302.651,365.583,302.651z M407.114,275.285
				c7.355,0,10.183,5.307,10.779,8.123h-21.557C396.934,280.591,399.76,275.285,407.114,275.285z M430.062,298.203h-14.71
				c-1.857,2.142-4.115,3.761-8.062,3.761c-5.565,0-10.272-3.328-11.125-8.972h33.898L430.062,298.203L430.062,298.203z"/>
		</g>
	</g>
</g>
</svg>
